<svg xmlns="http://www.w3.org/2000/svg" xmlns:xlink="http://www.w3.org/1999/xlink" viewBox="0 0 2000.28 2000.53"><defs><style>.cls-1{fill:none;}.cls-2{fill:url(#linear-gradient);}.cls-3{fill:#1e90ff;}</style><linearGradient id="linear-gradient" x1="0.28" y1="1000" x2="1781.81" y2="1000" gradientUnits="userSpaceOnUse"><stop offset="0" stop-color="#1e90ff"/><stop offset="0.38" stop-color="#1e8ffd"/><stop offset="0.52" stop-color="#1e8bf6"/><stop offset="0.61" stop-color="#1d85eb"/><stop offset="0.69" stop-color="#1d7cda"/><stop offset="0.76" stop-color="#1c71c4"/><stop offset="0.82" stop-color="#1b62a8"/><stop offset="0.87" stop-color="#195188"/><stop offset="0.92" stop-color="#183e62"/><stop offset="0.97" stop-color="#162839"/><stop offset="1" stop-color="#151515"/></linearGradient></defs><g id="Layer_2" data-name="Layer 2"><g id="isotipos"><g id="Reticula"><rect class="cls-1" y="0.3" width="2000.28" height="2000.23"/><line class="cls-1" y1="1714.79" x2="2000.28" y2="1714.79"/><line class="cls-1" y1="1571.91" x2="2000.28" y2="1571.91"/><line class="cls-1" y1="1857.66" x2="2000.28" y2="1857.66"/><line class="cls-1" y1="1429.04" x2="2000.28" y2="1429.04"/><line class="cls-1" y1="1286.17" x2="2000.28" y2="1286.17"/><line class="cls-1" y1="1143.29" x2="2000.28" y2="1143.29"/><line class="cls-1" y1="1000.42" x2="2000.28" y2="1000.42"/><line class="cls-1" y1="857.54" x2="2000.28" y2="857.54"/><line class="cls-1" y1="714.67" x2="2000.28" y2="714.67"/><line class="cls-1" y1="571.8" x2="2000.28" y2="571.8"/><line class="cls-1" y1="428.92" x2="2000.28" y2="428.92"/><line class="cls-1" y1="286.05" x2="2000.28" y2="286.05"/><line class="cls-1" y1="143.18" x2="2000.28" y2="143.18"/><line class="cls-1" x1="1714.53" y1="0.3" x2="1714.53" y2="2000.53"/><line class="cls-1" x1="1571.65" y1="0.3" x2="1571.65" y2="2000.53"/><line class="cls-1" x1="1857.4" y1="0.3" x2="1857.4" y2="2000.53"/><line class="cls-1" x1="1428.77" y1="0.3" x2="1428.77" y2="2000.53"/><line class="cls-1" x1="1285.89" y1="0.3" x2="1285.89" y2="2000.53"/><line class="cls-1" x1="1143.02" y1="0.3" x2="1143.02" y2="2000.53"/><line class="cls-1" x1="1000.14" y1="0.3" x2="1000.14" y2="2000.53"/><line class="cls-1" x1="857.26" y1="0.3" x2="857.26" y2="2000.53"/><line class="cls-1" x1="714.39" y1="0.3" x2="714.39" y2="2000.53"/><line class="cls-1" x1="571.51" y1="0.3" x2="571.51" y2="2000.53"/><line class="cls-1" x1="428.63" y1="0.3" x2="428.63" y2="2000.53"/><line class="cls-1" x1="285.75" y1="0.3" x2="285.75" y2="2000.53"/><line class="cls-1" x1="142.88" y1="0.3" x2="142.88" y2="2000.53"/><polyline class="cls-1" points="0 286.05 285.75 0.3 571.51 286.03 857.26 0.3 1143.02 286.03 1428.77 0.3 1714.53 286.03 2000.28 0.3"/><polyline class="cls-1" points="0 571.78 285.75 286.04 571.51 571.77 857.26 286.04 1143.02 571.77 1428.77 286.04 1714.53 571.77 2000.28 286.04"/><polyline class="cls-1" points="0 857.52 285.75 571.77 571.51 857.5 857.26 571.77 1143.02 857.5 1428.77 571.77 1714.53 857.5 2000.28 571.77"/><polyline class="cls-1" points="0 1143.25 285.75 857.5 571.51 1143.23 857.26 857.5 1143.02 1143.23 1428.77 857.5 1714.53 1143.23 2000.28 857.5"/><polyline class="cls-1" points="0 1428.99 285.75 1143.24 571.51 1428.97 857.26 1143.24 1143.02 1428.97 1428.77 1143.24 1714.53 1428.97 2000.28 1143.24"/><polyline class="cls-1" points="0 1714.72 285.75 1428.97 571.51 1714.7 857.26 1428.97 1143.02 1714.7 1428.77 1428.97 1714.53 1714.7 2000.28 1428.97"/><polyline class="cls-1" points="0 2000.45 285.75 1714.71 571.51 2000.44 857.26 1714.71 1143.02 2000.44 1428.77 1714.71 1714.53 2000.44 2000.28 1714.71"/><polyline class="cls-1" points="2000.28 286.05 1714.53 0.3 1428.77 286.03 1143.02 0.3 857.26 286.03 571.51 0.3 285.75 286.03 0 0.3"/><polyline class="cls-1" points="2000.28 571.78 1714.53 286.04 1428.77 571.77 1143.02 286.04 857.26 571.77 571.51 286.04 285.75 571.77 0 286.04"/><polyline class="cls-1" points="2000.28 857.52 1714.53 571.77 1428.77 857.5 1143.02 571.77 857.26 857.5 571.51 571.77 285.75 857.5 0 571.77"/><polyline class="cls-1" points="2000.28 1143.25 1714.53 857.5 1428.77 1143.23 1143.02 857.5 857.26 1143.23 571.51 857.5 285.75 1143.23 0 857.5"/><polyline class="cls-1" points="2000.28 1428.99 1714.53 1143.24 1428.77 1428.97 1143.02 1143.24 857.26 1428.97 571.51 1143.24 285.75 1428.97 0 1143.24"/><polyline class="cls-1" points="2000.28 1714.72 1714.53 1428.97 1428.77 1714.7 1143.02 1428.97 857.26 1714.7 571.51 1428.97 285.75 1714.7 0 1428.97"/><polyline class="cls-1" points="2000.28 2000.45 1714.53 1714.71 1428.77 2000.44 1143.02 1714.71 857.26 2000.44 571.51 1714.71 285.75 2000.44 0 1714.71"/></g><g id="Isotipo_en_reticula" data-name="Isotipo en reticula"><path class="cls-2" d="M1774.48,1597.42l-162.86-162.85a754.46,754.46,0,0,1-176.77,176.77A746.59,746.59,0,0,1,1000.28,1750c-414.21,0-750-335.79-750-750s335.79-750,750-750a746.59,746.59,0,0,1,434.57,138.66,754.46,754.46,0,0,1,176.77,176.77l162.86-162.85,0,0a25,25,0,0,0,2-33.1l-.23-.29q-2-2.52-4.11-5c-.89-1.08-1.78-2.16-2.68-3.23q-1.9-2.31-3.84-4.59c-1-1.22-2-2.43-3.08-3.64s-1.85-2.17-2.78-3.26q-4.18-4.87-8.43-9.7-2.11-2.42-4.26-4.81t-4.29-4.78q-4.3-4.77-8.67-9.49t-8.79-9.36l-3.66-3.84c-.56-.58-1.12-1.17-1.69-1.75l-3.14-3.24q-9.37-9.63-19-19l-3.24-3.14-1.75-1.69L1689,275q-4.65-4.43-9.36-8.79t-9.49-8.67q-2.39-2.16-4.78-4.29t-4.81-4.26q-4.82-4.26-9.7-8.43l-3.26-2.78c-1.21-1-2.42-2.06-3.64-3.08q-2.28-1.93-4.59-3.84c-1.07-.9-2.15-1.79-3.23-2.68q-2.49-2.07-5-4.11l-.29-.23q-8.6-7-17.34-13.79C1444.15,78.39,1231.37,0,1000.28,0,448,0,.28,447.72.28,1000S448,2000,1000.28,2000c231.09,0,443.87-78.39,613.2-210q8.74-6.8,17.34-13.79l.29-.23q2.52-2,5-4.11c1.08-.89,2.16-1.78,3.23-2.68q2.31-1.9,4.59-3.84c1.22-1,2.43-2,3.64-3.08l3.26-2.78q4.88-4.18,9.7-8.43,2.42-2.11,4.81-4.26t4.78-4.29q4.77-4.31,9.49-8.67T1689,1725l3.84-3.66,1.75-1.69,3.24-3.14q9.63-9.37,19-19l3.14-3.24c.57-.58,1.13-1.17,1.69-1.75l3.66-3.84q4.43-4.65,8.79-9.36t8.67-9.49q2.16-2.38,4.29-4.78t4.26-4.81q4.25-4.82,8.43-9.7c.93-1.09,1.86-2.17,2.78-3.26s2.06-2.42,3.08-3.64q1.94-2.28,3.84-4.59c.9-1.07,1.79-2.15,2.68-3.23q2.07-2.49,4.11-5l.23-.29a25,25,0,0,0-2-33.1Z"/><path class="cls-3" d="M1774.5,1597.44a25,25,0,0,1,2,33.1l-.23.29q-2,2.52-4.11,5c-.89,1.08-1.78,2.16-2.68,3.23q-1.9,2.31-3.84,4.59c-1,1.22-2,2.43-3.08,3.64s-1.85,2.17-2.78,3.26q-4.18,4.88-8.43,9.7-2.11,2.41-4.26,4.81t-4.29,4.78q-4.3,4.77-8.67,9.49t-8.79,9.36l-3.66,3.84c-.56.58-1.12,1.17-1.69,1.75l-3.14,3.24q-9.37,9.63-19,19l-3.24,3.14-1.75,1.69L1689,1725q-4.65,4.42-9.36,8.79t-9.49,8.67q-2.39,2.16-4.78,4.29t-4.81,4.26q-4.82,4.24-9.7,8.43l-3.26,2.78c-1.21,1-2.42,2.06-3.64,3.08q-2.28,1.93-4.59,3.84c-1.07.9-2.15,1.79-3.23,2.68q-2.49,2.07-5,4.11l-.29.23a25,25,0,0,1-33.12-2l-162.85-162.86-434.57-434.56-159.1,159.1a25,25,0,0,1-35.35,0L664.4,1194.45a25,25,0,0,1,0-35.35L823.5,1000,664.4,840.9a25,25,0,0,1,0-35.35L805.83,664.12a25,25,0,0,1,35.35,0l159.1,159.1,434.57-434.56L1597.7,225.8a25,25,0,0,1,33.12-2l.29.23q2.52,2,5,4.11c1.08.89,2.16,1.78,3.23,2.68q2.31,1.9,4.59,3.84c1.22,1,2.43,2,3.64,3.08l3.26,2.78q4.88,4.18,9.7,8.43,2.42,2.11,4.81,4.26t4.78,4.29q4.77,4.31,9.49,8.67T1689,275l3.84,3.66,1.75,1.69,3.24,3.14q9.63,9.38,19,19l3.14,3.24c.57.58,1.13,1.17,1.69,1.75l3.66,3.84q4.43,4.65,8.79,9.36t8.67,9.49q2.16,2.39,4.29,4.78t4.26,4.81q4.25,4.81,8.43,9.7c.93,1.09,1.86,2.17,2.78,3.26s2.06,2.42,3.08,3.64q1.94,2.28,3.84,4.59c.9,1.07,1.79,2.15,2.68,3.23q2.07,2.49,4.11,5l.23.29a25,25,0,0,1-2,33.1l0,0L1611.62,565.43,1177.06,1000l434.56,434.57,162.86,162.85Z"/></g></g></g></svg>