<svg xmlns="http://www.w3.org/2000/svg" viewBox="0 0 6056.27 843.17"><defs><style>.cls-1{fill:#1e90ff;}</style></defs><g id="Layer_2" data-name="Layer 2"><g id="logotipos"><g id="xavicodeer"><path d="M40.77,837.81q-18.26,0-29.5-11.8A39,39,0,0,1,0,798.12Q0,782,12.87,765.93l192-240.29,50.42,67.59L73,823.87Q61.13,837.82,40.77,837.81Zm420.51,0q-12.87,0-21.46-3.76t-17.16-14.48L237.08,586.79l-34.33-31.11L16.09,322.89q-12.87-15-12.87-31.1A42,42,0,0,1,14,263.36Q24.66,251,44,251a45,45,0,0,1,34.33,15L259.6,492.39l27.9,24.67,200.6,251q15,17.17,13.4,33.79c-1.06,11.1-5.73,19.85-13.94,26.29S470.56,837.81,461.28,837.81ZM296.08,560l-59-56.86L418.37,270.33q7.49-10.71,17.16-15A47.57,47.57,0,0,1,454.84,251q20.37,0,30.57,12.34t9.66,29.5Q494.52,310,482.73,325Z"/><path d="M842.11,843.17q-81.54,0-145.89-39.15T594.31,697.28Q556.74,629.71,556.76,545q0-85.82,39.15-153.4A288.6,288.6,0,0,1,702.65,284.81Q770.24,245.66,855,245.66q83.67,0,150.72,39.15t106.2,106.74q39.15,67.59,40.23,153.4l-36.47,18.24q0,79.39-35.94,142.67T982.1,806.16Q920.41,843.18,842.11,843.17ZM855,761.64q60.06,0,106.74-28.42t74-77.78q27.35-49.32,27.35-110.49,0-62.21-27.35-111t-74-77.77q-46.66-29-106.74-29-59,0-106.74,29a213.18,213.18,0,0,0-75.63,77.77q-27.9,48.82-27.89,111,0,61.15,27.89,110.49t75.63,77.78Q796,761.65,855,761.64Zm251,76.17q-19.3,0-32.72-12.34t-13.41-32.72v-177l20.38-93.32L1152.13,545v247.8q0,20.4-12.88,32.72T1106,837.81Z"/><path d="M1480.38,837.81q-27.9,0-41.83-30L1203.61,310q-7.5-15-1.6-30t23.06-23.61q16.1-8.56,31.65-2.68a46.09,46.09,0,0,1,24.13,20.92L1504,758.43h-46.13l221-483.81q6.44-16.1,23.6-21.45a44.65,44.65,0,0,1,33.25,2.14q17.16,8.6,22.53,24.14t-1.07,29.5L1524.37,807.77Q1510.41,837.82,1480.38,837.81Z"/><path d="M1932,144.82q-25.74,0-44-18.77t-18.24-44.52q0-26.81,18.77-44T1932,20.38q24.66,0,43.44,17.17t18.78,44q0,25.74-18.24,44.52T1932,144.82Zm1.07,693q-20.38,0-33.25-12.34t-12.88-33.79V297.15q0-21.45,12.88-33.79T1933.07,251q20.37,0,32.72,12.34t12.34,33.79V791.68q0,21.47-12.34,33.79T1933.07,837.81Z"/><path class="cls-1" d="M2449.06,843.17q-84.75,0-151.26-39.15T2193.21,697.28q-38.1-67.57-38.08-152.33,0-85.82,37-153.4T2293,284.81q63.8-39.15,147.5-39.15,64.36,0,119.07,25.21t96.54,75.63q12.88,15,9.12,30.57t-19.84,27.35a37.78,37.78,0,0,1-28.43,5.9q-15.57-2.65-28.43-16.62-59-66.51-148-66.52-59,0-103.53,27.9t-69.18,76.7q-24.7,48.83-24.68,113.17,0,62.24,26.28,111t73,77.24q46.66,28.42,106.74,28.42,40.76,0,73.48-10.72A166.54,166.54,0,0,0,2581,717.66q15-11.79,30-12.87t27.89,8.58q13.93,12.89,16.09,29t-10.72,29Q2566,843.18,2449.06,843.17Z"/><path class="cls-1" d="M3092.36,843.17q-86.88,0-153.93-38.62t-105.66-106.2q-38.62-67.58-38.62-153.4,0-86.9,38.62-154.47t105.66-106.2q67-38.62,153.93-38.62,85.82,0,152.34,38.62t105.12,106.2q38.61,67.57,39.69,154.47,0,85.83-38.62,153.4t-105.66,106.2Q3178.18,843.18,3092.36,843.17Zm0-81.53q60.07,0,107.28-28.42a202.15,202.15,0,0,0,74-77.24q26.81-48.81,26.81-111t-26.81-111.57q-26.84-49.32-74-77.77t-107.28-28.43q-60.09,0-107.8,28.43t-75.1,77.77q-27.35,49.37-27.35,111.57t27.35,111a204.77,204.77,0,0,0,75.1,77.24Q3032.27,761.65,3092.36,761.64Z"/><path class="cls-1" d="M3832.33,843.17q-84.75,0-152.33-39.15a288.38,288.38,0,0,1-106.74-106.74q-39.16-67.57-39.15-153.4,0-84.74,37.55-152.33t101.91-106.74q64.36-39.15,145.89-39.15,69.72,0,126,29.5t91.72,77.77V46.13q0-21.45,13.41-33.79T4083.35,0q20.36,0,33.26,12.34t12.87,33.79v501q-2.16,83.67-41.3,150.72T3982.52,804Q3916,843.19,3832.33,843.17Zm0-81.53q60.06,0,106.74-29t74-77.77q27.35-48.81,27.35-111,0-61.15-27.35-110.5t-74-77.77q-46.67-28.41-106.74-28.43-59,0-106.74,28.43T3650,433.38q-27.91,49.37-27.9,110.5,0,62.22,27.9,111a213,213,0,0,0,75.62,77.77Q3773.32,761.65,3832.33,761.64Z"/><path class="cls-1" d="M4600.29,843.17q-88,0-155.54-38.08t-106.2-105.66q-38.62-67.59-38.62-154.48,0-87.95,36.47-155t100.3-105.66q63.81-38.62,147.5-38.62,81.51,0,142.14,37t93.33,102.44q32.71,65.44,32.72,149.12,0,18.24-11.8,29.5t-30,11.26H4362.14V501h453.78l-46.14,32.18q1.08-59-21.45-106.2t-64.37-74q-41.82-26.81-99.76-26.82-61.14,0-106.74,27.89t-69.72,77.78Q4383.59,481.66,4383.6,545t27.9,112.64a201.24,201.24,0,0,0,76.69,77.24q48.81,27.9,112.1,27.89,36.47,0,74.56-12.88t60.61-32.18a50.79,50.79,0,0,1,29.5-10.19q16.62-.53,27.36,9.12,16.1,13.95,16.62,30t-14.47,27.89q-35.42,30-90.12,49.35T4600.29,843.17Z"/><path d="M5287.7,843.17q-88,0-155.54-38.08T5026,699.43q-38.62-67.59-38.61-154.48,0-87.95,36.46-155t100.31-105.66q63.8-38.62,147.5-38.62,81.51,0,142.14,37t93.32,102.44q32.72,65.44,32.73,149.12,0,18.24-11.81,29.5T5498,575H5049.55V501h453.77l-46.13,32.18q1.06-59-21.45-106.2t-64.36-74q-41.85-26.81-99.77-26.82-61.15,0-106.74,27.89t-69.72,77.78Q5071,481.66,5071,545t27.89,112.64a201.34,201.34,0,0,0,76.7,77.24q48.8,27.9,112.1,27.89,36.47,0,74.55-12.88t60.62-32.18a50.77,50.77,0,0,1,29.5-10.19q16.62-.53,27.35,9.12,16.09,13.95,16.62,30t-14.47,27.89q-35.41,30-90.12,49.35T5287.7,843.17Z"/><path d="M5724.3,837.81q-21.48,0-33.26-11.8t-11.8-33.26V296.08q0-21.45,11.8-33.26T5724.3,251q21.45,0,32.72,11.8t11.26,33.26V792.75q0,21.48-11.26,33.26T5724.3,837.81Zm-5.36-363.66q2.13-65.41,33.78-117.46a232.83,232.83,0,0,1,83.68-82.07q52-30,114.24-30,54.72,0,83.14,16.09t20.92,44q-3.22,15-13.41,21.45a43.21,43.21,0,0,1-23.6,6.44,247,247,0,0,1-30.57-2.14q-63.31-7.5-112.1,8t-77.78,51q-29,35.38-29,84.74Z"/></g></g></g></svg>